<svg width="1401.847" height="93.182" viewBox="0 0 1401.847 93.182" xmlns="http://www.w3.org/2000/svg"><g id="svgGroup" stroke-linecap="round" fill-rule="evenodd" font-size="9pt" stroke="#000" stroke-width="0.25mm" fill="#000" style="stroke:#000;stroke-width:0.25mm;fill:#000"><path d="M 412.643 63.068 L 412.216 63.068 A 11.952 11.952 0 0 1 410.64 65.77 A 14.868 14.868 0 0 1 409.606 66.974 A 11.252 11.252 0 0 1 407.068 68.948 A 14.848 14.848 0 0 1 405.025 69.922 Q 402.525 70.897 399.063 70.897 A 25.936 25.936 0 0 1 398.154 70.881 A 20.636 20.636 0 0 1 393.686 70.24 A 16.517 16.517 0 0 1 390.022 68.803 Q 386.506 66.903 384.145 63.619 A 22.644 22.644 0 0 1 381.265 58.1 A 27.201 27.201 0 0 1 380.594 55.984 A 33.847 33.847 0 0 1 379.498 49.373 A 40.398 40.398 0 0 1 379.404 46.591 A 28.127 28.127 0 0 1 379.898 41.22 A 23.314 23.314 0 0 1 380.824 37.82 Q 382.245 33.842 384.784 30.859 A 19.87 19.87 0 0 1 390.75 26.083 Q 394.177 24.29 398.154 23.864 A 24.747 24.747 0 0 1 400.127 23.743 Q 401.85 23.709 403.405 23.94 A 16.497 16.497 0 0 1 404.617 24.165 A 17.582 17.582 0 0 1 406.813 24.805 Q 408.294 25.349 409.411 26.119 A 8.412 8.412 0 0 1 410.497 26.998 Q 411.052 27.535 411.397 28.113 A 4.106 4.106 0 0 1 411.79 28.977 L 412.216 28.977 L 412.216 25 L 419.745 25 L 419.745 57.102 A 9.007 9.007 0 0 0 420.381 60.514 A 8.488 8.488 0 0 0 421.414 62.358 A 5.426 5.426 0 0 0 425.317 64.575 A 8.064 8.064 0 0 0 426.279 64.631 A 8.414 8.414 0 0 0 428.617 64.323 A 6.139 6.139 0 0 0 431.836 62.145 A 9.819 9.819 0 0 0 433.06 60.037 Q 434.031 57.816 434.5 54.474 Q 434.989 50.991 435.149 46.193 A 149.983 149.983 0 0 0 435.228 41.193 Q 435.228 36.435 433.932 31.8 Q 432.635 27.166 430.025 23.118 Q 427.415 19.07 423.438 15.98 A 29.304 29.304 0 0 0 416.859 12.161 A 35.221 35.221 0 0 0 414.116 11.133 A 34.269 34.269 0 0 0 407.649 9.711 A 45.654 45.654 0 0 0 401.989 9.375 Q 393.644 9.375 387.057 11.95 A 30.055 30.055 0 0 0 375.871 19.442 A 31.702 31.702 0 0 0 369.895 28.715 A 37.917 37.917 0 0 0 368.875 31.374 A 43.522 43.522 0 0 0 366.937 39.866 A 57.802 57.802 0 0 0 366.478 47.301 A 58.625 58.625 0 0 0 367.004 55.346 A 43.311 43.311 0 0 0 368.875 63.388 A 32.997 32.997 0 0 0 372.743 71.273 A 28.826 28.826 0 0 0 375.977 75.249 A 29.478 29.478 0 0 0 385.112 81.561 A 35.307 35.307 0 0 0 387.643 82.582 A 40.943 40.943 0 0 0 395.639 84.535 A 56.152 56.152 0 0 0 403.694 85.085 Q 407.6 85.085 411.4 84.339 Q 415.199 83.594 418.111 82.706 A 428.33 428.33 0 0 0 419.465 82.291 Q 421.343 81.712 422.302 81.392 L 424.29 87.926 A 28.55 28.55 0 0 1 422.619 88.561 Q 421.747 88.864 420.731 89.167 A 66.222 66.222 0 0 1 418.555 89.773 A 69.811 69.811 0 0 1 413.237 90.935 A 81.261 81.261 0 0 1 411.027 91.3 Q 407.032 91.903 403.41 91.903 A 67.846 67.846 0 0 1 393.776 91.252 A 49.604 49.604 0 0 1 384.198 88.938 A 38.693 38.693 0 0 1 374.807 84.143 A 34.139 34.139 0 0 1 370.171 80.22 A 36.25 36.25 0 0 1 362.607 68.791 A 43.217 43.217 0 0 1 361.577 66.122 A 50.626 50.626 0 0 1 359.263 56.272 A 68.459 68.459 0 0 1 358.665 47.017 Q 358.665 36.612 361.631 28.409 A 39.319 39.319 0 0 1 366.983 18.296 A 35.58 35.58 0 0 1 370.26 14.471 A 36.929 36.929 0 0 1 382.507 6.32 A 43.132 43.132 0 0 1 384.038 5.717 A 47.285 47.285 0 0 1 394.431 3.197 A 61.655 61.655 0 0 1 402.415 2.699 Q 412.394 2.699 419.905 5.948 A 38.167 38.167 0 0 1 428.707 11.192 A 33.872 33.872 0 0 1 432.476 14.719 A 37.329 37.329 0 0 1 440.075 27.131 Q 442.614 34.02 442.614 41.335 A 111.568 111.568 0 0 1 442.117 51.776 A 42.174 42.174 0 0 1 441.066 58.05 A 35.166 35.166 0 0 1 440.022 61.488 A 17.096 17.096 0 0 1 437.639 65.971 A 14.94 14.94 0 0 1 435.104 68.608 A 11.391 11.391 0 0 1 430.848 70.733 Q 429.201 71.181 427.252 71.279 A 22.205 22.205 0 0 1 426.137 71.307 A 18.476 18.476 0 0 1 423.527 71.112 Q 422.16 70.916 420.668 70.526 Q 417.685 69.744 415.377 67.933 A 7.185 7.185 0 0 1 412.656 63.163 A 9.27 9.27 0 0 1 412.643 63.068 Z M 819.745 72.727 L 811.364 72.727 L 811.364 18.182 L 819.461 18.182 L 819.461 26.705 L 820.171 26.705 A 13.801 13.801 0 0 1 825.675 19.904 Q 829.475 17.472 834.802 17.472 A 19.776 19.776 0 0 1 838.855 17.865 Q 841.562 18.432 843.669 19.814 A 12.536 12.536 0 0 1 843.804 19.904 A 15.674 15.674 0 0 1 848.618 25.135 A 19.402 19.402 0 0 1 849.432 26.705 L 850.001 26.705 A 16 16 0 0 1 856.286 19.975 A 17.346 17.346 0 0 1 862.176 17.824 A 23.546 23.546 0 0 1 866.336 17.472 A 19.142 19.142 0 0 1 871.986 18.269 A 15.335 15.335 0 0 1 878.303 22.035 A 13.987 13.987 0 0 1 881.642 27.425 Q 882.422 29.612 882.738 32.303 A 33.571 33.571 0 0 1 882.955 36.222 L 882.955 72.727 L 874.574 72.727 L 874.574 36.222 Q 874.574 32.49 873.312 30.074 A 7.557 7.557 0 0 0 871.272 27.592 Q 867.969 25 863.495 25 A 15.331 15.331 0 0 0 859.846 25.409 A 10.239 10.239 0 0 0 854.581 28.462 A 11.976 11.976 0 0 0 851.532 35.296 A 16.141 16.141 0 0 0 851.421 37.216 L 851.421 72.727 L 842.898 72.727 L 842.898 35.369 A 11.63 11.63 0 0 0 842.401 31.887 A 9.273 9.273 0 0 0 839.88 27.859 A 10.295 10.295 0 0 0 834.101 25.137 A 14.128 14.128 0 0 0 832.103 25 Q 828.836 25 826.013 26.74 A 12.914 12.914 0 0 0 821.631 31.267 A 15.204 15.204 0 0 0 821.467 31.552 A 13.442 13.442 0 0 0 819.881 36.454 A 17.022 17.022 0 0 0 819.745 38.636 L 819.745 72.727 Z M 1338.637 72.727 L 1330.256 72.727 L 1330.256 18.182 L 1338.353 18.182 L 1338.353 26.705 L 1339.063 26.705 A 13.801 13.801 0 0 1 1344.567 19.904 Q 1348.367 17.472 1353.694 17.472 A 19.776 19.776 0 0 1 1357.747 17.865 Q 1360.454 18.432 1362.561 19.814 A 12.536 12.536 0 0 1 1362.696 19.904 A 15.674 15.674 0 0 1 1367.51 25.135 A 19.402 19.402 0 0 1 1368.324 26.705 L 1368.893 26.705 A 16 16 0 0 1 1375.178 19.975 A 17.346 17.346 0 0 1 1381.068 17.824 A 23.546 23.546 0 0 1 1385.228 17.472 A 19.142 19.142 0 0 1 1390.878 18.269 A 15.335 15.335 0 0 1 1397.195 22.035 A 13.987 13.987 0 0 1 1400.534 27.425 Q 1401.314 29.612 1401.63 32.303 A 33.571 33.571 0 0 1 1401.847 36.222 L 1401.847 72.727 L 1393.466 72.727 L 1393.466 36.222 Q 1393.466 32.49 1392.204 30.074 A 7.557 7.557 0 0 0 1390.164 27.592 Q 1386.861 25 1382.387 25 A 15.331 15.331 0 0 0 1378.738 25.409 A 10.239 10.239 0 0 0 1373.474 28.462 A 11.976 11.976 0 0 0 1370.424 35.296 A 16.141 16.141 0 0 0 1370.313 37.216 L 1370.313 72.727 L 1361.79 72.727 L 1361.79 35.369 A 11.63 11.63 0 0 0 1361.293 31.887 A 9.273 9.273 0 0 0 1358.772 27.859 A 10.295 10.295 0 0 0 1352.993 25.137 A 14.128 14.128 0 0 0 1350.995 25 Q 1347.728 25 1344.905 26.74 A 12.914 12.914 0 0 0 1340.523 31.267 A 15.204 15.204 0 0 0 1340.359 31.552 A 13.442 13.442 0 0 0 1338.773 36.454 A 17.022 17.022 0 0 0 1338.637 38.636 L 1338.637 72.727 Z M 562.643 44.744 L 562.643 48.295 L 520.597 48.295 L 520.597 41.051 L 554.12 41.051 A 19.954 19.954 0 0 0 553.604 36.427 A 16.401 16.401 0 0 0 552.291 32.813 Q 550.462 29.19 547.106 27.095 A 13.734 13.734 0 0 0 541.668 25.166 A 17.761 17.761 0 0 0 539.205 25 A 17.029 17.029 0 0 0 534.692 25.574 A 13.812 13.812 0 0 0 530.558 27.468 Q 526.918 29.936 524.965 33.878 Q 523.012 37.82 523.012 42.33 L 523.012 47.159 A 29.56 29.56 0 0 0 523.366 51.866 Q 523.885 55.076 525.16 57.617 A 16.027 16.027 0 0 0 528.282 61.949 A 14.456 14.456 0 0 0 531.144 64.116 A 16.452 16.452 0 0 0 537.297 66.159 A 21.063 21.063 0 0 0 540.057 66.335 A 20.009 20.009 0 0 0 543.484 66.054 A 15.952 15.952 0 0 0 546.041 65.394 A 12.481 12.481 0 0 0 550.675 62.553 A 12.253 12.253 0 0 0 553.165 59.051 A 14.909 14.909 0 0 0 553.694 57.813 L 561.79 60.085 A 17.81 17.81 0 0 1 557.493 67.312 A 20.045 20.045 0 0 1 551.651 71.447 A 23.971 23.971 0 0 1 550.036 72.141 A 25.243 25.243 0 0 1 543.897 73.641 A 32.135 32.135 0 0 1 540.057 73.864 A 29.835 29.835 0 0 1 533.361 73.145 A 22.855 22.855 0 0 1 526.474 70.366 A 23.065 23.065 0 0 1 517.703 60.565 A 29.849 29.849 0 0 1 515.1 52.111 A 39.781 39.781 0 0 1 514.631 45.881 A 38.841 38.841 0 0 1 515.375 38.108 A 30.086 30.086 0 0 1 517.703 31.09 Q 520.775 24.68 526.297 21.076 A 22.144 22.144 0 0 1 536.063 17.644 A 27.978 27.978 0 0 1 539.205 17.472 Q 543.466 17.472 547.621 18.892 A 20.86 20.86 0 0 1 554.864 23.197 A 23.981 23.981 0 0 1 555.185 23.491 A 19.902 19.902 0 0 1 558.745 27.985 A 26.678 26.678 0 0 1 560.618 31.889 A 27.458 27.458 0 0 1 562.002 36.919 Q 562.643 40.45 562.643 44.744 Z M 574.716 92.188 L 576.847 84.801 A 21.643 21.643 0 0 0 578.863 85.221 Q 580.105 85.415 581.208 85.415 A 11.456 11.456 0 0 0 582.245 85.369 A 6.37 6.37 0 0 0 585.833 83.834 A 8.341 8.341 0 0 0 586.417 83.292 Q 588.156 81.52 589.621 77.679 A 35.269 35.269 0 0 0 589.773 77.273 L 591.336 73.011 L 571.165 18.182 L 580.256 18.182 L 595.313 61.648 L 595.881 61.648 L 610.938 18.182 L 620.029 18.182 L 596.876 80.682 A 28.795 28.795 0 0 1 595.306 84.216 Q 594.332 86.049 593.162 87.503 A 17.724 17.724 0 0 1 593.005 87.695 A 15.35 15.35 0 0 1 589.705 90.706 A 13.712 13.712 0 0 1 587.66 91.832 A 15.624 15.624 0 0 1 583.125 93.05 A 19.554 19.554 0 0 1 580.824 93.182 A 23.065 23.065 0 0 1 578.928 93.108 Q 578.038 93.034 577.248 92.888 A 14.051 14.051 0 0 1 577.025 92.844 Q 575.356 92.507 574.716 92.188 Z M 126.421 39.915 L 126.421 72.727 L 118.04 72.727 L 118.04 18.182 L 126.137 18.182 L 126.137 26.705 L 126.847 26.705 A 15.691 15.691 0 0 1 132.671 20.011 A 14.748 14.748 0 0 1 137.145 18.106 Q 139.667 17.472 142.756 17.472 A 22.996 22.996 0 0 1 147.798 18.001 A 17.925 17.925 0 0 1 152.451 19.727 A 15.19 15.19 0 0 1 158.426 25.642 A 18.767 18.767 0 0 1 158.914 26.545 A 19.762 19.762 0 0 1 160.532 31.172 Q 161.222 34.262 161.222 38.068 L 161.222 72.727 L 152.841 72.727 L 152.841 38.636 A 19.909 19.909 0 0 0 152.456 34.594 Q 151.944 32.126 150.752 30.233 A 11.08 11.08 0 0 0 149.503 28.604 Q 146.165 25 140.341 25 A 15.807 15.807 0 0 0 136.157 25.535 A 13.414 13.414 0 0 0 133.186 26.74 A 12.37 12.37 0 0 0 128.347 31.611 A 14.787 14.787 0 0 0 128.232 31.818 Q 126.472 35.062 126.422 39.646 A 24.694 24.694 0 0 0 126.421 39.915 Z M 699.148 39.915 L 699.148 72.727 L 690.768 72.727 L 690.768 18.182 L 698.864 18.182 L 698.864 26.705 L 699.574 26.705 A 15.691 15.691 0 0 1 705.398 20.011 A 14.748 14.748 0 0 1 709.873 18.106 Q 712.394 17.472 715.483 17.472 A 22.996 22.996 0 0 1 720.525 18.001 A 17.925 17.925 0 0 1 725.178 19.727 A 15.19 15.19 0 0 1 731.153 25.642 A 18.767 18.767 0 0 1 731.641 26.545 A 19.762 19.762 0 0 1 733.259 31.172 Q 733.949 34.262 733.949 38.068 L 733.949 72.727 L 725.569 72.727 L 725.569 38.636 A 19.909 19.909 0 0 0 725.183 34.594 Q 724.671 32.126 723.48 30.233 A 11.08 11.08 0 0 0 722.231 28.604 Q 718.893 25 713.069 25 A 15.807 15.807 0 0 0 708.885 25.535 A 13.414 13.414 0 0 0 705.913 26.74 A 12.37 12.37 0 0 0 701.074 31.611 A 14.787 14.787 0 0 0 700.959 31.818 Q 699.2 35.062 699.15 39.646 A 24.694 24.694 0 0 0 699.148 39.915 Z M 1102.557 50.426 L 1102.557 18.182 L 1110.938 18.182 L 1110.938 72.727 L 1102.557 72.727 L 1102.557 63.494 L 1101.989 63.494 A 17.418 17.418 0 0 1 1097.061 69.752 A 21.04 21.04 0 0 1 1096.023 70.543 Q 1091.975 73.438 1085.796 73.438 A 19.772 19.772 0 0 1 1080.543 72.763 A 16.725 16.725 0 0 1 1076.705 71.183 A 14.972 14.972 0 0 1 1071.408 66.059 A 18.936 18.936 0 0 1 1070.455 64.364 Q 1068.571 60.581 1068.249 55.15 A 39.026 39.026 0 0 1 1068.182 52.841 L 1068.182 18.182 L 1076.563 18.182 L 1076.563 52.273 A 17.183 17.183 0 0 0 1077.015 56.328 A 11.861 11.861 0 0 0 1079.919 61.79 A 11.177 11.177 0 0 0 1087.969 65.332 A 14.942 14.942 0 0 0 1088.495 65.341 A 13.353 13.353 0 0 0 1092.75 64.62 A 17.102 17.102 0 0 0 1094.869 63.743 A 13.632 13.632 0 0 0 1099.545 59.927 A 16.646 16.646 0 0 0 1100.338 58.842 Q 1102.557 55.54 1102.557 50.426 Z M 46.165 34.517 L 37.785 34.517 A 12.475 12.475 0 0 0 34.996 29.345 A 16.123 16.123 0 0 0 33.541 27.894 Q 30.256 25 24.716 25 A 15.983 15.983 0 0 0 19.855 25.717 A 13.898 13.898 0 0 0 16.14 27.539 A 15.884 15.884 0 0 0 11.47 32.634 A 20.049 20.049 0 0 0 10.423 34.677 A 22.999 22.999 0 0 0 8.786 40.265 A 31.682 31.682 0 0 0 8.381 45.455 Q 8.381 51.776 10.388 56.463 A 18.619 18.619 0 0 0 12.856 60.684 A 15.309 15.309 0 0 0 16.069 63.743 A 14.192 14.192 0 0 0 23.12 66.265 A 17.93 17.93 0 0 0 24.716 66.335 A 16.245 16.245 0 0 0 28.292 65.955 A 13.595 13.595 0 0 0 30.647 65.199 Q 33.31 64.063 35.157 61.932 A 12.217 12.217 0 0 0 37.5 57.774 A 14.619 14.619 0 0 0 37.785 56.818 L 46.165 56.818 A 19.402 19.402 0 0 1 42.667 65.501 A 19.417 19.417 0 0 1 36.019 71.247 A 22.888 22.888 0 0 1 35.317 71.609 A 21.467 21.467 0 0 1 29.037 73.547 A 28.341 28.341 0 0 1 24.716 73.864 A 27.2 27.2 0 0 1 18.007 73.071 A 21.413 21.413 0 0 1 11.506 70.241 A 23.49 23.49 0 0 1 3.22 60.755 A 28.042 28.042 0 0 1 2.983 60.263 A 31.244 31.244 0 0 1 0.353 51.14 A 40.094 40.094 0 0 1 0.001 45.739 A 38.218 38.218 0 0 1 0.757 37.97 A 29.797 29.797 0 0 1 3.072 31.055 A 25.182 25.182 0 0 1 8.014 24.024 A 23.149 23.149 0 0 1 11.666 21.076 A 22.144 22.144 0 0 1 21.432 17.644 A 27.978 27.978 0 0 1 24.574 17.472 A 26.724 26.724 0 0 1 30.687 18.146 A 22.238 22.238 0 0 1 34.944 19.602 Q 39.56 21.733 42.508 25.568 Q 45.455 29.403 46.165 34.517 Z M 312.927 34.517 L 304.546 34.517 A 12.475 12.475 0 0 0 301.757 29.345 A 16.123 16.123 0 0 0 300.302 27.894 Q 297.018 25 291.478 25 A 15.983 15.983 0 0 0 286.617 25.717 A 13.898 13.898 0 0 0 282.902 27.539 A 15.884 15.884 0 0 0 278.231 32.634 A 20.049 20.049 0 0 0 277.184 34.677 A 22.999 22.999 0 0 0 275.547 40.265 A 31.682 31.682 0 0 0 275.143 45.455 Q 275.143 51.776 277.149 56.463 A 18.619 18.619 0 0 0 279.617 60.684 A 15.309 15.309 0 0 0 282.831 63.743 A 14.192 14.192 0 0 0 289.881 66.265 A 17.93 17.93 0 0 0 291.478 66.335 A 16.245 16.245 0 0 0 295.054 65.955 A 13.595 13.595 0 0 0 297.408 65.199 Q 300.072 64.063 301.918 61.932 A 12.217 12.217 0 0 0 304.261 57.774 A 14.619 14.619 0 0 0 304.546 56.818 L 312.927 56.818 A 19.402 19.402 0 0 1 309.429 65.501 A 19.417 19.417 0 0 1 302.78 71.247 A 22.888 22.888 0 0 1 302.078 71.609 A 21.467 21.467 0 0 1 295.798 73.547 A 28.341 28.341 0 0 1 291.478 73.864 A 27.2 27.2 0 0 1 284.768 73.071 A 21.413 21.413 0 0 1 278.268 70.241 A 23.49 23.49 0 0 1 269.982 60.755 A 28.042 28.042 0 0 1 269.745 60.263 A 31.244 31.244 0 0 1 267.114 51.14 A 40.094 40.094 0 0 1 266.762 45.739 A 38.218 38.218 0 0 1 267.518 37.97 A 29.797 29.797 0 0 1 269.834 31.055 A 25.182 25.182 0 0 1 274.775 24.024 A 23.149 23.149 0 0 1 278.427 21.076 A 22.144 22.144 0 0 1 288.193 17.644 A 27.978 27.978 0 0 1 291.336 17.472 A 26.724 26.724 0 0 1 297.448 18.146 A 22.238 22.238 0 0 1 301.705 19.602 Q 306.322 21.733 309.269 25.568 Q 312.216 29.403 312.927 34.517 Z M 1001.563 34.517 L 993.182 34.517 A 12.475 12.475 0 0 0 990.393 29.345 A 16.123 16.123 0 0 0 988.939 27.894 Q 985.654 25 980.114 25 A 15.983 15.983 0 0 0 975.253 25.717 A 13.898 13.898 0 0 0 971.538 27.539 A 15.884 15.884 0 0 0 966.868 32.634 A 20.049 20.049 0 0 0 965.821 34.677 A 22.999 22.999 0 0 0 964.184 40.265 A 31.682 31.682 0 0 0 963.779 45.455 Q 963.779 51.776 965.785 56.463 A 18.619 18.619 0 0 0 968.253 60.684 A 15.309 15.309 0 0 0 971.467 63.743 A 14.192 14.192 0 0 0 978.518 66.265 A 17.93 17.93 0 0 0 980.114 66.335 A 16.245 16.245 0 0 0 983.69 65.955 A 13.595 13.595 0 0 0 986.045 65.199 Q 988.708 64.063 990.555 61.932 A 12.217 12.217 0 0 0 992.897 57.774 A 14.619 14.619 0 0 0 993.182 56.818 L 1001.563 56.818 A 19.402 19.402 0 0 1 998.065 65.501 A 19.417 19.417 0 0 1 991.416 71.247 A 22.888 22.888 0 0 1 990.714 71.609 A 21.467 21.467 0 0 1 984.435 73.547 A 28.341 28.341 0 0 1 980.114 73.864 A 27.2 27.2 0 0 1 973.404 73.071 A 21.413 21.413 0 0 1 966.904 70.241 A 23.49 23.49 0 0 1 958.618 60.755 A 28.042 28.042 0 0 1 958.381 60.263 A 31.244 31.244 0 0 1 955.751 51.14 A 40.094 40.094 0 0 1 955.398 45.739 A 38.218 38.218 0 0 1 956.154 37.97 A 29.797 29.797 0 0 1 958.47 31.055 A 25.182 25.182 0 0 1 963.411 24.024 A 23.149 23.149 0 0 1 967.064 21.076 A 22.144 22.144 0 0 1 976.83 17.644 A 27.978 27.978 0 0 1 979.972 17.472 A 26.724 26.724 0 0 1 986.085 18.146 A 22.238 22.238 0 0 1 990.341 19.602 Q 994.958 21.733 997.905 25.568 Q 1000.853 29.403 1001.563 34.517 Z M 1258.381 34.517 L 1250.001 34.517 A 12.475 12.475 0 0 0 1247.212 29.345 A 16.123 16.123 0 0 0 1245.757 27.894 Q 1242.472 25 1236.932 25 A 15.983 15.983 0 0 0 1232.071 25.717 A 13.898 13.898 0 0 0 1228.356 27.539 A 15.884 15.884 0 0 0 1223.686 32.634 A 20.049 20.049 0 0 0 1222.639 34.677 A 22.999 22.999 0 0 0 1221.002 40.265 A 31.682 31.682 0 0 0 1220.597 45.455 Q 1220.597 51.776 1222.604 56.463 A 18.619 18.619 0 0 0 1225.072 60.684 A 15.309 15.309 0 0 0 1228.285 63.743 A 14.192 14.192 0 0 0 1235.336 66.265 A 17.93 17.93 0 0 0 1236.932 66.335 A 16.245 16.245 0 0 0 1240.508 65.955 A 13.595 13.595 0 0 0 1242.863 65.199 Q 1245.526 64.063 1247.373 61.932 A 12.217 12.217 0 0 0 1249.716 57.774 A 14.619 14.619 0 0 0 1250.001 56.818 L 1258.381 56.818 A 19.402 19.402 0 0 1 1254.883 65.501 A 19.417 19.417 0 0 1 1248.235 71.247 A 22.888 22.888 0 0 1 1247.532 71.609 A 21.467 21.467 0 0 1 1241.253 73.547 A 28.341 28.341 0 0 1 1236.932 73.864 A 27.2 27.2 0 0 1 1230.223 73.071 A 21.413 21.413 0 0 1 1223.722 70.241 A 23.49 23.49 0 0 1 1215.436 60.755 A 28.042 28.042 0 0 1 1215.199 60.263 A 31.244 31.244 0 0 1 1212.569 51.14 A 40.094 40.094 0 0 1 1212.216 45.739 A 38.218 38.218 0 0 1 1212.972 37.97 A 29.797 29.797 0 0 1 1215.288 31.055 A 25.182 25.182 0 0 1 1220.229 24.024 A 23.149 23.149 0 0 1 1223.882 21.076 A 22.144 22.144 0 0 1 1233.648 17.644 A 27.978 27.978 0 0 1 1236.79 17.472 A 26.724 26.724 0 0 1 1242.903 18.146 A 22.238 22.238 0 0 1 1247.16 19.602 Q 1251.776 21.733 1254.724 25.568 Q 1257.671 29.403 1258.381 34.517 Z M 1134.66 93.182 L 1126.279 93.182 L 1126.279 18.182 L 1134.376 18.182 L 1134.376 26.847 L 1135.37 26.847 A 43.414 43.414 0 0 1 1136.018 25.881 Q 1136.757 24.809 1137.795 23.408 A 139.254 139.254 0 0 1 1137.944 23.207 A 12.4 12.4 0 0 1 1139.941 21.118 Q 1141.137 20.115 1142.703 19.229 A 11.963 11.963 0 0 1 1145.578 18.095 Q 1146.92 17.744 1148.511 17.591 A 27.385 27.385 0 0 1 1151.137 17.472 A 23.344 23.344 0 0 1 1158.277 18.531 A 20.422 20.422 0 0 1 1163.282 20.916 A 22.166 22.166 0 0 1 1170.295 28.407 A 27.613 27.613 0 0 1 1171.485 30.682 A 30.459 30.459 0 0 1 1173.848 38.393 A 42.229 42.229 0 0 1 1174.432 45.597 A 42.927 42.927 0 0 1 1173.868 52.733 Q 1173.166 56.896 1171.591 60.37 A 26.849 26.849 0 0 1 1171.485 60.6 A 25.344 25.344 0 0 1 1167.712 66.523 A 21.454 21.454 0 0 1 1163.317 70.401 Q 1158.097 73.864 1151.279 73.864 A 25.603 25.603 0 0 1 1147.949 73.661 Q 1146.261 73.439 1144.863 72.975 A 11.67 11.67 0 0 1 1142.863 72.106 A 19.168 19.168 0 0 1 1140.455 70.534 Q 1138.983 69.397 1137.998 68.093 A 81.522 81.522 0 0 1 1137.009 66.758 Q 1136.037 65.417 1135.411 64.413 A 23.912 23.912 0 0 1 1135.37 64.347 L 1134.66 64.347 L 1134.66 93.182 Z M 245.597 36.222 L 245.597 35.938 A 15.511 15.511 0 0 0 245.267 32.636 Q 244.806 30.52 243.701 28.932 A 8.953 8.953 0 0 0 242.738 27.77 Q 239.88 24.858 234.091 24.858 A 22.196 22.196 0 0 0 230.432 25.141 Q 226.971 25.72 224.681 27.486 A 20.275 20.275 0 0 0 222.326 29.593 Q 221.13 30.857 220.356 32.196 A 11.342 11.342 0 0 0 219.887 33.097 L 211.932 30.256 A 22.544 22.544 0 0 1 214.202 26.137 A 17.002 17.002 0 0 1 217.632 22.496 Q 221.201 19.709 225.444 18.59 A 33.093 33.093 0 0 1 232.776 17.489 A 30.527 30.527 0 0 1 233.807 17.472 A 27.041 27.041 0 0 1 236.26 17.591 Q 237.516 17.705 238.914 17.931 A 48.98 48.98 0 0 1 239.862 18.093 A 19.537 19.537 0 0 1 245.797 20.228 A 22.45 22.45 0 0 1 246.503 20.632 A 13.624 13.624 0 0 1 250.249 23.984 A 18.092 18.092 0 0 1 251.847 26.42 Q 253.464 29.358 253.854 33.808 A 34.204 34.204 0 0 1 253.978 36.79 L 253.978 72.727 L 245.597 72.727 L 245.597 65.341 L 245.171 65.341 Q 244.511 66.715 243.17 68.239 A 22.494 22.494 0 0 1 242.33 69.141 Q 240.341 71.165 237.039 72.585 A 16.304 16.304 0 0 1 233.623 73.605 Q 232.035 73.905 230.216 73.981 A 29.996 29.996 0 0 1 228.978 74.006 A 23.602 23.602 0 0 1 223.159 73.311 A 20.253 20.253 0 0 1 219.567 72.035 A 15.981 15.981 0 0 1 212.856 66.317 A 14.689 14.689 0 0 1 210.65 60.645 A 19.81 19.81 0 0 1 210.37 57.244 A 19.482 19.482 0 0 1 210.608 54.102 Q 210.887 52.397 211.493 51.003 A 10.17 10.17 0 0 1 212.216 49.627 Q 214.063 46.697 217.153 45.028 A 25.635 25.635 0 0 1 222.494 42.898 A 29.699 29.699 0 0 1 223.988 42.525 Q 227.735 41.69 231.535 41.193 Q 235.982 40.621 238.937 40.291 A 217.081 217.081 0 0 1 239.613 40.217 Q 242.721 39.879 244.159 39.063 A 2.717 2.717 0 0 0 245.507 37.158 A 4.585 4.585 0 0 0 245.597 36.222 Z M 785.796 26.847 L 786.506 26.847 L 786.506 0 L 794.887 0 L 794.887 72.727 L 786.79 72.727 L 786.79 64.347 L 785.796 64.347 Q 784.893 65.805 783.243 67.993 A 96.814 96.814 0 0 1 783.168 68.093 A 12.714 12.714 0 0 1 781.1 70.224 Q 780.054 71.086 778.74 71.856 A 22.224 22.224 0 0 1 778.303 72.106 A 12.389 12.389 0 0 1 775.389 73.244 Q 773.975 73.612 772.3 73.761 A 27.18 27.18 0 0 1 769.887 73.864 A 22.79 22.79 0 0 1 762.722 72.768 A 20.203 20.203 0 0 1 757.849 70.401 A 22.215 22.215 0 0 1 751.079 63.236 A 27.733 27.733 0 0 1 749.681 60.6 A 30.528 30.528 0 0 1 747.339 52.971 Q 746.733 49.523 746.733 45.597 A 42.351 42.351 0 0 1 747.298 38.512 Q 748.012 34.304 749.629 30.793 A 26.835 26.835 0 0 1 749.681 30.682 Q 752.628 24.361 757.884 20.916 A 21.101 21.101 0 0 1 767.916 17.556 A 26.124 26.124 0 0 1 770.029 17.472 A 26.231 26.231 0 0 1 773.286 17.661 Q 776.375 18.048 778.463 19.229 Q 781.195 20.775 782.802 22.678 A 10.969 10.969 0 0 1 783.221 23.207 Q 784.699 25.192 785.593 26.538 A 36.181 36.181 0 0 1 785.796 26.847 Z M 464.347 72.727 L 456.251 72.727 L 456.251 0 L 464.631 0 L 464.631 26.847 L 465.341 26.847 A 43.414 43.414 0 0 1 465.99 25.881 Q 466.728 24.809 467.767 23.408 A 139.254 139.254 0 0 1 467.916 23.207 A 12.4 12.4 0 0 1 469.913 21.118 Q 471.109 20.115 472.675 19.229 A 11.963 11.963 0 0 1 475.55 18.095 Q 476.892 17.744 478.483 17.591 A 27.385 27.385 0 0 1 481.108 17.472 A 23.344 23.344 0 0 1 488.249 18.531 A 20.422 20.422 0 0 1 493.253 20.916 A 22.166 22.166 0 0 1 500.267 28.407 A 27.613 27.613 0 0 1 501.456 30.682 A 30.459 30.459 0 0 1 503.819 38.393 A 42.229 42.229 0 0 1 504.404 45.597 A 42.927 42.927 0 0 1 503.84 52.733 Q 503.138 56.896 501.562 60.37 A 26.849 26.849 0 0 1 501.456 60.6 A 25.344 25.344 0 0 1 497.683 66.523 A 21.454 21.454 0 0 1 493.289 70.401 Q 488.069 73.864 481.251 73.864 A 25.603 25.603 0 0 1 477.92 73.661 Q 476.233 73.439 474.835 72.975 A 11.67 11.67 0 0 1 472.834 72.106 A 19.168 19.168 0 0 1 470.427 70.534 Q 468.955 69.397 467.969 68.093 A 81.522 81.522 0 0 1 466.98 66.758 Q 466.009 65.417 465.383 64.413 A 23.912 23.912 0 0 1 465.341 64.347 L 464.347 64.347 L 464.347 72.727 Z M 80.54 73.864 Q 73.154 73.864 67.596 70.348 A 23.47 23.47 0 0 1 59.432 61.482 A 28.205 28.205 0 0 1 58.932 60.511 A 29.633 29.633 0 0 1 56.337 52.254 A 39.68 39.68 0 0 1 55.824 45.739 A 39.482 39.482 0 0 1 56.496 38.283 A 29.497 29.497 0 0 1 58.932 30.859 Q 62.039 24.503 67.596 20.987 A 22.714 22.714 0 0 1 77.395 17.64 A 28.723 28.723 0 0 1 80.54 17.472 Q 87.927 17.472 93.484 20.987 Q 99.042 24.503 102.149 30.859 A 29.919 29.919 0 0 1 104.743 39.171 A 40.289 40.289 0 0 1 105.256 45.739 A 38.845 38.845 0 0 1 104.573 53.194 A 29.201 29.201 0 0 1 102.149 60.511 A 24.746 24.746 0 0 1 97.162 67.459 A 22.827 22.827 0 0 1 93.484 70.348 A 22.714 22.714 0 0 1 83.686 73.695 A 28.723 28.723 0 0 1 80.54 73.864 Z M 653.268 73.864 Q 645.881 73.864 640.324 70.348 A 23.47 23.47 0 0 1 632.159 61.482 A 28.205 28.205 0 0 1 631.659 60.511 A 29.633 29.633 0 0 1 629.064 52.254 A 39.68 39.68 0 0 1 628.552 45.739 A 39.482 39.482 0 0 1 629.223 38.283 A 29.497 29.497 0 0 1 631.659 30.859 Q 634.766 24.503 640.324 20.987 A 22.714 22.714 0 0 1 650.122 17.64 A 28.723 28.723 0 0 1 653.268 17.472 Q 660.654 17.472 666.211 20.987 Q 671.769 24.503 674.876 30.859 A 29.919 29.919 0 0 1 677.471 39.171 A 40.289 40.289 0 0 1 677.983 45.739 A 38.845 38.845 0 0 1 677.301 53.194 A 29.201 29.201 0 0 1 674.876 60.511 A 24.746 24.746 0 0 1 669.889 67.459 A 22.827 22.827 0 0 1 666.211 70.348 A 22.714 22.714 0 0 1 656.413 73.695 A 28.723 28.723 0 0 1 653.268 73.864 Z M 920.455 73.864 Q 913.069 73.864 907.511 70.348 A 23.47 23.47 0 0 1 899.347 61.482 A 28.205 28.205 0 0 1 898.846 60.511 A 29.633 29.633 0 0 1 896.252 52.254 A 39.68 39.68 0 0 1 895.739 45.739 A 39.482 39.482 0 0 1 896.411 38.283 A 29.497 29.497 0 0 1 898.846 30.859 Q 901.954 24.503 907.511 20.987 A 22.714 22.714 0 0 1 917.309 17.64 A 28.723 28.723 0 0 1 920.455 17.472 Q 927.841 17.472 933.399 20.987 Q 938.956 24.503 942.064 30.859 A 29.919 29.919 0 0 1 944.658 39.171 A 40.289 40.289 0 0 1 945.171 45.739 A 38.845 38.845 0 0 1 944.488 53.194 A 29.201 29.201 0 0 1 942.064 60.511 A 24.746 24.746 0 0 1 937.077 67.459 A 22.827 22.827 0 0 1 933.399 70.348 A 22.714 22.714 0 0 1 923.601 73.695 A 28.723 28.723 0 0 1 920.455 73.864 Z M 1292.756 73.864 Q 1285.37 73.864 1279.812 70.348 A 23.47 23.47 0 0 1 1271.648 61.482 A 28.205 28.205 0 0 1 1271.148 60.511 A 29.633 29.633 0 0 1 1268.553 52.254 A 39.68 39.68 0 0 1 1268.04 45.739 A 39.482 39.482 0 0 1 1268.712 38.283 A 29.497 29.497 0 0 1 1271.148 30.859 Q 1274.255 24.503 1279.812 20.987 A 22.714 22.714 0 0 1 1289.61 17.64 A 28.723 28.723 0 0 1 1292.756 17.472 Q 1300.143 17.472 1305.7 20.987 Q 1311.258 24.503 1314.365 30.859 A 29.919 29.919 0 0 1 1316.959 39.171 A 40.289 40.289 0 0 1 1317.472 45.739 A 38.845 38.845 0 0 1 1316.789 53.194 A 29.201 29.201 0 0 1 1314.365 60.511 A 24.746 24.746 0 0 1 1309.378 67.459 A 22.827 22.827 0 0 1 1305.7 70.348 A 22.714 22.714 0 0 1 1295.902 73.695 A 28.723 28.723 0 0 1 1292.756 73.864 Z M 180.256 59.375 L 180.256 5.114 L 188.637 5.114 L 188.637 57.102 A 19.344 19.344 0 0 0 188.72 58.958 Q 188.932 61.148 189.684 62.411 A 6.155 6.155 0 0 0 190.666 63.676 A 4.679 4.679 0 0 0 192.383 64.755 A 10.378 10.378 0 0 0 195.867 65.341 A 11.304 11.304 0 0 0 195.881 65.341 A 19.825 19.825 0 0 0 196.775 65.322 Q 197.173 65.304 197.518 65.269 A 8.457 8.457 0 0 0 198.154 65.181 Q 198.834 65.059 199.305 64.968 A 42.336 42.336 0 0 0 199.574 64.915 L 201.279 72.443 A 10.269 10.269 0 0 1 200.68 72.645 Q 200.052 72.837 199.189 73.035 A 35.846 35.846 0 0 1 198.9 73.1 A 12.434 12.434 0 0 1 197.654 73.304 Q 197.006 73.379 196.257 73.412 A 28.107 28.107 0 0 1 195.029 73.438 Q 191.478 73.438 188.086 71.911 Q 184.695 70.384 182.476 67.259 A 11.631 11.631 0 0 1 180.623 62.972 Q 180.268 61.36 180.257 59.496 A 20.278 20.278 0 0 1 180.256 59.375 Z M 328.836 59.375 L 328.836 5.114 L 337.216 5.114 L 337.216 57.102 A 19.344 19.344 0 0 0 337.299 58.958 Q 337.511 61.148 338.264 62.411 A 6.155 6.155 0 0 0 339.245 63.676 A 4.679 4.679 0 0 0 340.963 64.755 A 10.378 10.378 0 0 0 344.446 65.341 A 11.304 11.304 0 0 0 344.461 65.341 A 19.825 19.825 0 0 0 345.354 65.322 Q 345.753 65.304 346.097 65.269 A 8.457 8.457 0 0 0 346.733 65.181 Q 347.413 65.059 347.885 64.968 A 42.336 42.336 0 0 0 348.154 64.915 L 349.858 72.443 A 10.269 10.269 0 0 1 349.26 72.645 Q 348.632 72.837 347.768 73.035 A 35.846 35.846 0 0 1 347.479 73.1 A 12.434 12.434 0 0 1 346.233 73.304 Q 345.586 73.379 344.836 73.412 A 28.107 28.107 0 0 1 343.608 73.438 Q 340.057 73.438 336.666 71.911 Q 333.275 70.384 331.055 67.259 A 11.631 11.631 0 0 1 329.202 62.972 Q 328.847 61.36 328.836 59.496 A 20.278 20.278 0 0 1 328.836 59.375 Z M 1022.16 72.727 L 1013.779 72.727 L 1013.779 0 L 1022.16 0 L 1022.16 72.727 Z M 80.54 66.335 A 17.999 17.999 0 0 0 84.62 65.896 A 12.836 12.836 0 0 0 89.773 63.459 A 16.691 16.691 0 0 0 94.732 56.899 A 20.198 20.198 0 0 0 95.135 55.895 A 28.197 28.197 0 0 0 96.814 47.762 A 33.064 33.064 0 0 0 96.876 45.739 A 30.316 30.316 0 0 0 95.977 38.263 A 27.153 27.153 0 0 0 95.135 35.547 Q 93.395 30.824 89.773 27.912 A 12.9 12.9 0 0 0 84.163 25.344 A 18.181 18.181 0 0 0 80.54 25 A 17.725 17.725 0 0 0 76.385 25.462 A 12.748 12.748 0 0 0 71.307 27.912 Q 67.685 30.824 65.945 35.547 A 28.643 28.643 0 0 0 64.249 44.027 A 33.311 33.311 0 0 0 64.205 45.739 A 30.241 30.241 0 0 0 65.028 52.889 A 26.749 26.749 0 0 0 65.945 55.895 A 17.858 17.858 0 0 0 68.81 60.991 A 16.154 16.154 0 0 0 71.307 63.459 A 12.95 12.95 0 0 0 76.841 65.98 A 18.331 18.331 0 0 0 80.54 66.335 Z M 653.268 66.335 A 17.999 17.999 0 0 0 657.348 65.896 A 12.836 12.836 0 0 0 662.501 63.459 A 16.691 16.691 0 0 0 667.46 56.899 A 20.198 20.198 0 0 0 667.863 55.895 A 28.197 28.197 0 0 0 669.542 47.762 A 33.064 33.064 0 0 0 669.603 45.739 A 30.316 30.316 0 0 0 668.704 38.263 A 27.153 27.153 0 0 0 667.863 35.547 Q 666.123 30.824 662.501 27.912 A 12.9 12.9 0 0 0 656.89 25.344 A 18.181 18.181 0 0 0 653.268 25 A 17.725 17.725 0 0 0 649.112 25.462 A 12.748 12.748 0 0 0 644.035 27.912 Q 640.412 30.824 638.672 35.547 A 28.643 28.643 0 0 0 636.976 44.027 A 33.311 33.311 0 0 0 636.932 45.739 A 30.241 30.241 0 0 0 637.755 52.889 A 26.749 26.749 0 0 0 638.672 55.895 A 17.858 17.858 0 0 0 641.537 60.991 A 16.154 16.154 0 0 0 644.035 63.459 A 12.95 12.95 0 0 0 649.568 65.98 A 18.331 18.331 0 0 0 653.268 66.335 Z M 920.455 66.335 A 17.999 17.999 0 0 0 924.535 65.896 A 12.836 12.836 0 0 0 929.688 63.459 A 16.691 16.691 0 0 0 934.647 56.899 A 20.198 20.198 0 0 0 935.05 55.895 A 28.197 28.197 0 0 0 936.729 47.762 A 33.064 33.064 0 0 0 936.79 45.739 A 30.316 30.316 0 0 0 935.891 38.263 A 27.153 27.153 0 0 0 935.05 35.547 Q 933.31 30.824 929.688 27.912 A 12.9 12.9 0 0 0 924.078 25.344 A 18.181 18.181 0 0 0 920.455 25 A 17.725 17.725 0 0 0 916.3 25.462 A 12.748 12.748 0 0 0 911.222 27.912 Q 907.6 30.824 905.86 35.547 A 28.643 28.643 0 0 0 904.163 44.027 A 33.311 33.311 0 0 0 904.12 45.739 A 30.241 30.241 0 0 0 904.942 52.889 A 26.749 26.749 0 0 0 905.86 55.895 A 17.858 17.858 0 0 0 908.725 60.991 A 16.154 16.154 0 0 0 911.222 63.459 A 12.95 12.95 0 0 0 916.756 65.98 A 18.331 18.331 0 0 0 920.455 66.335 Z M 1292.756 66.335 A 17.999 17.999 0 0 0 1296.836 65.896 A 12.836 12.836 0 0 0 1301.989 63.459 A 16.691 16.691 0 0 0 1306.948 56.899 A 20.198 20.198 0 0 0 1307.351 55.895 A 28.197 28.197 0 0 0 1309.03 47.762 A 33.064 33.064 0 0 0 1309.091 45.739 A 30.316 30.316 0 0 0 1308.193 38.263 A 27.153 27.153 0 0 0 1307.351 35.547 Q 1305.611 30.824 1301.989 27.912 A 12.9 12.9 0 0 0 1296.379 25.344 A 18.181 18.181 0 0 0 1292.756 25 A 17.725 17.725 0 0 0 1288.601 25.462 A 12.748 12.748 0 0 0 1283.523 27.912 Q 1279.901 30.824 1278.161 35.547 A 28.643 28.643 0 0 0 1276.465 44.027 A 33.311 33.311 0 0 0 1276.421 45.739 A 30.241 30.241 0 0 0 1277.243 52.889 A 26.749 26.749 0 0 0 1278.161 55.895 A 17.858 17.858 0 0 0 1281.026 60.991 A 16.154 16.154 0 0 0 1283.523 63.459 A 12.95 12.95 0 0 0 1289.057 65.98 A 18.331 18.331 0 0 0 1292.756 66.335 Z M 1134.518 45.455 A 35.789 35.789 0 0 0 1134.916 50.924 A 26.179 26.179 0 0 0 1136.329 56.339 A 18.614 18.614 0 0 0 1138.472 60.41 A 14.832 14.832 0 0 0 1141.62 63.69 A 12.85 12.85 0 0 0 1147.574 66.149 A 17.099 17.099 0 0 0 1150.143 66.335 A 16.385 16.385 0 0 0 1154.271 65.839 A 12.509 12.509 0 0 0 1158.932 63.548 A 16.235 16.235 0 0 0 1163.322 58.134 A 20.457 20.457 0 0 0 1164.258 56.019 A 27.596 27.596 0 0 0 1165.84 49.33 A 34.487 34.487 0 0 0 1166.052 45.455 A 32.518 32.518 0 0 0 1165.556 39.658 A 25.947 25.947 0 0 0 1164.294 35.067 A 17.817 17.817 0 0 0 1161.883 30.628 A 15.188 15.188 0 0 0 1159.003 27.717 A 12.872 12.872 0 0 0 1153.445 25.292 A 17.85 17.85 0 0 0 1150.143 25 A 16.846 16.846 0 0 0 1146.119 25.458 A 12.677 12.677 0 0 0 1141.549 27.575 A 14.857 14.857 0 0 0 1137.322 32.511 A 19.058 19.058 0 0 0 1136.293 34.748 A 25.494 25.494 0 0 0 1134.908 40.06 Q 1134.518 42.591 1134.518 45.455 Z M 464.489 45.455 A 35.789 35.789 0 0 0 464.887 50.924 A 26.179 26.179 0 0 0 466.3 56.339 A 18.614 18.614 0 0 0 468.444 60.41 A 14.832 14.832 0 0 0 471.591 63.69 A 12.85 12.85 0 0 0 477.546 66.149 A 17.099 17.099 0 0 0 480.114 66.335 A 16.385 16.385 0 0 0 484.242 65.839 A 12.509 12.509 0 0 0 488.903 63.548 A 16.235 16.235 0 0 0 493.294 58.134 A 20.457 20.457 0 0 0 494.23 56.019 A 27.596 27.596 0 0 0 495.811 49.33 A 34.487 34.487 0 0 0 496.023 45.455 A 32.518 32.518 0 0 0 495.527 39.658 A 25.947 25.947 0 0 0 494.265 35.067 A 17.817 17.817 0 0 0 491.854 30.628 A 15.188 15.188 0 0 0 488.974 27.717 A 12.872 12.872 0 0 0 483.417 25.292 A 17.85 17.85 0 0 0 480.114 25 A 16.846 16.846 0 0 0 476.09 25.458 A 12.677 12.677 0 0 0 471.52 27.575 A 14.857 14.857 0 0 0 467.294 32.511 A 19.058 19.058 0 0 0 466.265 34.748 A 25.494 25.494 0 0 0 464.879 40.06 Q 464.489 42.591 464.489 45.455 Z M 771.023 66.335 A 15.937 15.937 0 0 0 775.204 65.811 A 12.504 12.504 0 0 0 779.546 63.69 A 15.306 15.306 0 0 0 783.651 58.887 A 19.863 19.863 0 0 0 784.837 56.339 Q 786.648 51.634 786.648 45.455 A 35.633 35.633 0 0 0 786.284 40.229 Q 785.844 37.263 784.873 34.748 Q 783.097 30.149 779.617 27.575 Q 776.137 25 771.023 25 A 17.248 17.248 0 0 0 766.991 25.448 A 12.667 12.667 0 0 0 762.163 27.717 A 15.759 15.759 0 0 0 757.626 33.33 A 19.658 19.658 0 0 0 756.872 35.067 A 26.845 26.845 0 0 0 755.341 41.464 A 34.029 34.029 0 0 0 755.114 45.455 A 32.688 32.688 0 0 0 755.674 51.623 A 26.542 26.542 0 0 0 756.907 56.019 A 18.779 18.779 0 0 0 759.262 60.447 A 15.65 15.65 0 0 0 762.234 63.548 A 12.812 12.812 0 0 0 768.203 66.115 A 17.381 17.381 0 0 0 771.023 66.335 Z M 1031.251 43.892 L 1021.591 52.841 L 1021.449 42.472 L 1023.154 42.472 L 1047.018 18.182 L 1057.387 18.182 L 1031.961 43.892 L 1031.251 43.892 Z M 399.29 63.636 A 19.28 19.28 0 0 0 402.477 63.389 Q 404.203 63.099 405.61 62.47 A 10.069 10.069 0 0 0 406.996 61.719 Q 409.944 59.801 411.293 55.93 A 21.548 21.548 0 0 0 412.154 52.525 Q 412.459 50.766 412.574 48.721 A 45.788 45.788 0 0 0 412.643 46.165 A 38.607 38.607 0 0 0 412.497 42.693 Q 412.187 39.273 411.218 37.015 A 11.171 11.171 0 0 0 411.151 36.861 A 10.429 10.429 0 0 0 409.607 34.359 A 8.253 8.253 0 0 0 406.748 32.173 A 13.578 13.578 0 0 0 403.721 31.205 Q 402.309 30.919 400.683 30.848 A 25.269 25.269 0 0 0 399.574 30.824 A 12.918 12.918 0 0 0 396.068 31.28 A 10.405 10.405 0 0 0 392.667 32.937 A 13.293 13.293 0 0 0 388.544 38.009 A 15.88 15.88 0 0 0 388.3 38.548 A 18.702 18.702 0 0 0 386.815 45.113 A 21.858 21.858 0 0 0 386.79 46.165 A 30.402 30.402 0 0 0 387.441 52.544 A 27.024 27.024 0 0 0 387.998 54.705 A 15.487 15.487 0 0 0 389.633 58.394 A 12.757 12.757 0 0 0 391.939 61.168 Q 394.674 63.636 399.29 63.636 Z M 1059.091 72.727 L 1048.438 72.727 L 1027.131 45.739 L 1033.097 39.915 L 1059.091 72.727 Z M 245.597 52.983 L 245.597 45.313 Q 245.179 45.814 243.987 46.239 A 12.058 12.058 0 0 1 243.271 46.467 A 29.228 29.228 0 0 1 241.473 46.918 Q 240.523 47.127 239.458 47.304 A 48.375 48.375 0 0 1 239.152 47.354 A 122.81 122.81 0 0 1 235.19 47.925 A 110.749 110.749 0 0 1 234.642 47.994 Q 232.688 48.232 231.402 48.399 A 195.635 195.635 0 0 0 231.108 48.438 A 34.142 34.142 0 0 0 226.826 49.267 A 29.379 29.379 0 0 0 225.018 49.805 A 12.264 12.264 0 0 0 222.613 50.89 A 9.528 9.528 0 0 0 220.473 52.61 A 6.253 6.253 0 0 0 219.003 55.419 Q 218.766 56.383 218.752 57.518 A 11.685 11.685 0 0 0 218.751 57.67 A 9.315 9.315 0 0 0 219.134 60.42 A 7.058 7.058 0 0 0 222 64.258 A 12.199 12.199 0 0 0 226.145 66.037 Q 228.026 66.477 230.256 66.477 A 21.065 21.065 0 0 0 234.041 66.155 Q 236.298 65.743 238.137 64.803 A 12.786 12.786 0 0 0 238.655 64.524 A 14.628 14.628 0 0 0 241.904 62.048 A 12.53 12.53 0 0 0 243.839 59.482 A 12.95 12.95 0 0 0 245.597 52.983 Z M 172.018 18.182 L 200.285 18.182 L 200.285 25.284 L 172.018 25.284 L 172.018 18.182 Z M 320.597 18.182 L 348.864 18.182 L 348.864 25.284 L 320.597 25.284 L 320.597 18.182 Z M 1188.873 71.472 A 6.143 6.143 0 0 0 1193.324 73.295 A 7.184 7.184 0 0 0 1193.435 73.295 A 6.065 6.065 0 0 0 1196.538 72.425 A 6.682 6.682 0 0 0 1198.846 70.099 A 6.115 6.115 0 0 0 1199.716 66.903 A 6.424 6.424 0 0 0 1199.429 64.964 A 6.275 6.275 0 0 0 1197.834 62.393 A 7.572 7.572 0 0 0 1197.775 62.335 A 6.143 6.143 0 0 0 1193.324 60.511 A 6.424 6.424 0 0 0 1191.385 60.799 A 6.275 6.275 0 0 0 1188.814 62.393 A 7.572 7.572 0 0 0 1188.756 62.452 A 6.143 6.143 0 0 0 1186.932 66.903 A 6.424 6.424 0 0 0 1187.22 68.843 A 6.275 6.275 0 0 0 1188.814 71.413 A 7.572 7.572 0 0 0 1188.873 71.472 Z" vector-effect="non-scaling-stroke"/></g></svg>